<svg width="19" height="31" xmlns="http://www.w3.org/2000/svg">
 <defs>
  <linearGradient spreadMethod="pad" y2="0" x2="0.972656" y1="0.007813" x1="0" id="svg_6">
   <stop offset="0" stop-color="#515151"/>
   <stop offset="1" stop-color="#aeaeae"/>
  </linearGradient>
 </defs>
 <g>
  <title>background</title>
  <rect fill="none" id="canvas_background" height="33" width="21" y="-1" x="-1"/>
 </g>
 <g>
  <title>Layer 1</title>
  <path transform="rotate(-180 9.702638626098635,15.522747993469238) " id="svg_1" fill="#fcfcfc" d="m16.497917,13.798872l-9.586,-9.586c-0.878,-0.878 -2.317,-0.878 -3.195,0l-0.8,0.8c-0.878,0.877 -0.878,2.316 0,3.194l7.314,7.316l-7.315,7.315c-0.878,0.878 -0.878,2.317 0,3.194l0.8,0.8c0.878,0.879 2.317,0.879 3.195,0l9.586,-9.587c0.472,-0.471 0.682,-1.103 0.647,-1.723c0.036,-0.619 -0.174,-1.251 -0.646,-1.723z"/>
  <ellipse id="svg_7" cy="9.808017" cx="7.233644" stroke-opacity="null" stroke-width="null" stroke="null" fill="url(#svg_6)"/>
  <ellipse id="svg_8" cy="29.688331" cx="11.368749" stroke-opacity="null" stroke-width="null" stroke="null" fill="#515151"/>
 </g>
</svg>